<svg xmlns="http://www.w3.org/2000/svg">
<symbol id="cogwheel" viewBox="0 0 49.3 48.8"><circle cx="24.5" cy="24.3" r="23.5" fill="none" stroke="#e2dede"/><path class="cls-2" d="M35.3 21.8l-1.7-.3-.7-1.6 1-1.4a1.5 1.5 0 0 0-.2-2L32.2 15a1.5 1.5 0 0 0-1.9-.2l-1.4 1-1.6-.7-.3-1.7a1.5 1.5 0 0 0-1.5-1.2h-2a1.6 1.6 0 0 0-1.5 1.2l-.3 1.7-1.6.7-1.4-1a1.5 1.5 0 0 0-1.9.2l-1.5 1.5a1.4 1.4 0 0 0 0 1.9l1 1.4-.8 1.7-1.7.2a1.6 1.6 0 0 0-1.2 1.5v2a1.6 1.6 0 0 0 1.2 1.5l1.7.3.7 1.6-1 1.4a1.5 1.5 0 0 0 .2 1.9l1.5 1.5a1.5 1.5 0 0 0 2 0l1.3-1 1.6.8.3 1.7a1.4 1.4 0 0 0 1.4 1.2h2.2a1.4 1.4 0 0 0 1.4-1.2l.3-1.7 1.6-.7 1.4 1a1.5 1.5 0 0 0 2-.2l1.4-1.5A1.5 1.5 0 0 0 34 30l-1-1.4.7-1.6 1.7-.3a1.4 1.4 0 0 0 1.2-1.4v-2.2a1.4 1.4 0 0 0-1.2-1.4zm0 3.6H35l-2 .4c-.3 0-.5.3-.6.5a8.3 8.3 0 0 1-.9 2 1.1 1.1 0 0 0 0 .9l1.3 1.7v.2l-1.5 1.5h-.1l-1.8-1.2a.7.7 0 0 0-.8 0 7.8 7.8 0 0 1-2 .8c-.3 0-.5.3-.6.5l-.3 2-.1.3h-2.2v-.2l-.4-2c0-.3-.3-.5-.5-.6l-2-.8-.4-.1h-.4l-1.8 1.3h-.1L16.3 31V31l1.2-1.8v-.7a7.7 7.7 0 0 1-.9-2.1.5.5 0 0 0-.5-.5l-2.1-.4h-.1v-2.3l2.2-.4c.2 0 .4-.2.5-.5a7.5 7.5 0 0 1 .9-2v-.8l-1.3-1.8v-.2l1.5-1.4h.2l1.6 1.2h.7a8 8 0 0 1 2.1-.9.5.5 0 0 0 .5-.5l.4-2.1.1-.2h2.2l.2.2.3 2a.6.6 0 0 0 .5.6 8.5 8.5 0 0 1 2.2.9h.7l1.7-1.3h.1l1.6 1.5v.2l-1.2 1.6a.6.6 0 0 0 0 .8l.8 2c0 .3.3.5.5.6l2.2.3v2.4z"/><path class="cls-2" d="M24.5 19a5.2 5.2 0 0 0 0 10.5 5.2 5.2 0 0 0 0-10.4zm0 9a3.8 3.8 0 1 1 3.8-3.7 3.8 3.8 0 0 1-3.8 3.8z"/></symbol>
<symbol id="menu" viewBox="0 0 22.6 20.4"><path class="cls-1" d="M21 9.1H1.5a1 1 0 0 0-.8 1.1 1 1 0 0 0 .8 1H21a1 1 0 0 0 .9-1 1 1 0 0 0-.9-1zM21 .8H1.5A1 1 0 0 0 .8 2 1 1 0 0 0 1.6 3H21a1 1 0 0 0 .9-1 1 1 0 0 0-.9-1.2zM21 17.4H1.5a1 1 0 0 0-.8 1 1 1 0 0 0 .8 1.2H21a1 1 0 0 0 .9-1.1 1 1 0 0 0-.9-1.1z"/></symbol>
<symbol id="quote-w" viewBox="0 0 305.1 254.2"><path d="M287.1 2.1h-93.6c-8.5 0-15.4 6.5-15.4 14.5V105a15 15 0 0 0 15.4 14.5h44.8q-1 34.7-17 55.6-12.8 16.4-38.6 27.2a14.2 14.2 0 0 0-7.7 19.5l11 22a15.8 15.8 0 0 0 20 7q30.6-12.5 51.7-31.6 25.7-23.2 35.2-52.7t9.6-80.5V16.6c0-8-6.9-14.5-15.3-14.5zm-252 248.7q30.2-12.4 51.3-31.5 26-23.4 35.4-52.6t9.5-80.7V16.6c0-8-6.9-14.5-15.4-14.5H22.5C14 2.1 7.1 8.6 7.1 16.6V105a15 15 0 0 0 15.4 14.5h44.8q-1 34.7-17.1 55.5-12.7 16.5-38.5 27.3A14.2 14.2 0 0 0 4 221.8l11 22c3.6 7 12.5 10.3 20.1 7z" fill="#fff"/></symbol>
<symbol id="ruble" viewBox="0 0 49.1 49.1"><circle cx="24.6" cy="24.6" r="23.5" fill="none" stroke="#e2dede"/><path d="M26 25.4a4.9 4.9 0 0 0 0-9.8h-4a1 1 0 0 0-1 .9V27h-.8a.9.9 0 0 0-.6 1.1 1 1 0 0 0 .6.6h.9v5a.9.9 0 0 0 1.1.5.9.9 0 0 0 .6-.5v-5H26a.9.9 0 0 0 .6-1.2.9.9 0 0 0-.6-.5h-3.2v-1.7zm0-8a3.2 3.2 0 0 1 0 6.3h-3.2v-6.4H26z" fill="#8c0014"/></symbol>
<symbol id="shield" viewBox="0 0 49.2 49.2"><path class="cls-1" d="M35.6 18.6v-.8a2.7 2.7 0 0 0-2.6-2.7 10.5 10.5 0 0 1-7.3-3 1.6 1.6 0 0 0-2.2 0 10.5 10.5 0 0 1-7.3 3 2.8 2.8 0 0 0-2.6 2.7v.8a29 29 0 0 0 1 10.4 13 13 0 0 0 3.2 5 16.5 16.5 0 0 0 6.8 3.6 2.5 2.5 0 0 0 .6 0 17.8 17.8 0 0 0 6.2-3.7 14.1 14.1 0 0 0 3.1-5c1.3-3.4 1.2-7.2 1.1-10.2zm-2.5 9.8a12.6 12.6 0 0 1-8.6 7.7c-4.3-1.5-7-4-8.4-7.7a26.5 26.5 0 0 1-1-9.7v-.9a1.1 1.1 0 0 1 1.2-1 12 12 0 0 0 8.2-3.6h.2a11.9 11.9 0 0 0 8.2 3.5 1.1 1.1 0 0 1 1.2 1.1v1c0 3 .1 6.5-1 9.6z"/><path class="cls-1" d="M24.6 18.1a6.5 6.5 0 1 0 6.5 6.5 6.5 6.5 0 0 0-6.5-6.5zm0 11.5a5 5 0 1 1 5-5 5 5 0 0 1-5 5z"/><path class="cls-1" d="M26.5 22.6l-3 3-.9-.8a.8.8 0 0 0-1 1l1.3 1.4a.8.8 0 0 0 1 0l3.6-3.5a.8.8 0 0 0-.4-1 .8.8 0 0 0-.6 0z"/><circle cx="24.6" cy="24.6" r="23.5" fill="none" stroke="#e2dede"/></symbol>
</svg>