<svg version="1.0" xmlns="http://www.w3.org/2000/svg" width="666.667" height="666.667" viewBox="0 0 500 500"><path d="M397.5 11.1c-6.2.6-37.5 4.2-60.5 6.9-4.7.6-13 1.5-18.5 2-5.5.6-11 1.3-12.3 1.5-1.5.4-2.5 0-2.9-1-.5-1.4-2-1.6-10.7-1-5.5.3-12 1.1-14.4 1.7-4.4 1.1-42.3.4-130.4-2.4l-36.6-1.1-14.6 5.7L82 29.2v170.1c-.1 93.6-.3 182.4-.6 197.3l-.6 27.1 2.6 4.2c1.4 2.2 3.1 4.1 3.6 4.1.6 0 6.3 5.4 12.8 11.9l11.7 12 4.3-.6c4.4-.6 5.4.4 2.7 2.7-2.2 1.8-.9 3 3.6 3 4.2 0 4.9-1.2 2.2-4.2-.9-1-1.2-1.8-.7-1.8s5.9-.4 11.9-1c6.1-.5 18.2-1.4 27-2 26.5-1.7 74.7-5 96.6-6.5 11.3-.8 21.1-1.5 21.7-1.5.5 0 .8.9.5 2-.5 1.7 0 2 2.9 2 1.9 0 3.9-.5 4.6-1.2.8-.8 2.1-.5 5.1 1.5 4.7 3.1 5.1 3.2 5.1 1.1 0-1.3.3-1.3 2.8-.1 1.5.8 4.7 2.1 7.2 2.9 2.5.8 24.2 9.4 48.2 19.1 24 9.8 44.9 17.7 46.5 17.7 6.2 0 5.8 10.7 5.4-134.8-.2-96.6 0-133.2.8-133.7 9.2-5.6 16-71.8 11.7-114.5-2.7-27.1-5.4-39.5-10.1-47.6-2.5-4.2-2.5-4.6-2.5-25.7V11.2l-2.2-.4c-1.3-.2-5.4 0-9.3.3zM388.3 29c6.7.8 9.4 1.9 7 2.7-.7.2-.9 1.1-.6 1.9.6 1.6-7.4 1.5-41.2-.6l-12-.7 10.9-.2c6 0 10.7-.3 10.5-.5-.4-.5-21.6-1.5-32.3-1.6-8.5 0-7.9-1.1 1.2-2.1 7.9-.9 46.6-.1 56.5 1.1zm-84.2 33c-.1 19.9.2 29.9.9 29.5.5-.3 1-4.5 1.1-9.3.1-8.1.2-8.5 1.4-5.7.7 1.7 1.5 6.4 1.7 10.5.3 8.1.9 8.7 6.5 6.8 1.2-.4 2.5-.4 2.7.1.3.4 1.9.6 3.5.3 1.7-.2 2.8-.8 2.5-1.3-.3-.5.2-.9 1.1-.9.8 0 2.3-.9 3.2-2 1-1.1 2.3-2 3-2 .7 0 1.3-.4 1.3-.8 0-.5 1.8-1.7 4-2.8 2.2-1 4-2.4 4-2.9 0-.6 1.5-1.9 3.2-3 1.8-1 5.5-4 8.2-6.7 2.7-2.6 5.7-4.8 6.6-4.8 1 0 2.5-1.1 3.4-2.5.9-1.4 2.1-2.3 2.6-2 .5.3 2.5-.4 4.4-1.5 2-1.1 3.6-1.7 3.6-1.3 0 .4.9-.3 2-1.5 1.2-1.2 2.6-2.2 3.2-2.2.6 0 1.9-.7 2.9-1.6.9-.8 2.3-1.7 3.1-1.8 3.1-.5 5.8-1.8 5.8-2.7 0-.6.5-.7 1-.4.6.3 1 .1 1-.4 0-.6.4-1.1.9-1.1 2.4 0 3.1 28.9 2.9 118.5-.1 38.5-.2 75-.2 81.2l-.1 11.1-3.9.4c-2.5.2-4-.1-4.3-.9-.9-2.4-2.4-1.3-2.1 1.4.3 2.6.7 2.8 5.1 3.1l4.7.3v101.5c0 70.7-.3 101.4-1.1 101.4-.5 0-.7-.4-.4-1 .3-.5.1-1-.4-1-.6 0-1.1.7-1.1 1.5s.7 1.5 1.5 1.5 1.5.4 1.5 1c0 1.3-1 1.2-4-.5-1.4-.8-1.9-1.4-1.2-1.5.7 0 1-.5.7-1-.4-.6-1.2-.7-1.8-.3-1.7 1.1-6.8 1.2-6.1.2.3-.5-.4-.9-1.5-.9-1.2 0-2.1-.5-2.1-1 0-.6-.7-1-1.5-1s-1.5-.5-1.5-1c0-.6-.7-1-1.6-1-.9 0-1.2.5-.8 1.2.5.8.2.9-1 .5-1-.4-2.5-.7-3.4-.7-1.4 0-1.4-.2-.3-.9 1.1-.7.9-1-.8-1.6-1.1-.3-2.5-.3-3.1 0-.6.3-3.1-.5-5.8-1.8-2.6-1.3-6.5-3-8.7-3.6-6.2-1.9-19-7-28-11.1l-4-1.9 3.7.3c2 .1 3.5-.1 3.3-.5-.3-.4 1.1-1 3-1.3 3.6-.7 5.7-2.5 3.1-2.7-2-.2-2.6-.4-4.9-1.3-.9-.5-2.9-.6-4.3-.3-1.5.2-4.2 0-6.1-.5-1.9-.5-4.2-.7-5.1-.3-1 .3-1.9.6-2.1.5-.2-.1-.7.4-1.2 1.1-.4.8-1.2 1-1.6.5-.4-.4-.7-57.8-.6-127.4.1-69.7-.1-132.3-.6-139.2-.6-8.9-.8 2.7-1 41 0 29.4-.3 58.2-.5 64-.2 5.8-.4 20.4-.5 32.4-.1 12.1-.3 21.7-.5 21.5-.2-.2-.6-5.9-.7-12.6-.2-6.7-.7-11.9-1.1-11.7-.4.3-.8-60.2-.8-134.5 0-123 .1-135.1 1.6-136.6.9-.9 1.9-1.4 2.1-1.1.3.3.5 14 .4 30.6zm28.2-30.3c-.7.2-1.9.2-2.5 0-.7-.3-.2-.5 1.2-.5s1.9.2 1.3.5zm5 0c-.7.2-1.9.2-2.5 0-.7-.3-.2-.5 1.2-.5s1.9.2 1.3.5zm-164.6 8.9c-.3.3-1.2.4-1.9.1-.8-.3-.5-.6.6-.6 1.1-.1 1.7.2 1.3.5zm-2 4.6c-.3.8-.6.5-.6-.6-.1-1.1.2-1.7.5-1.3.3.3.4 1.2.1 1.9zm8.6 7.5c-1.3.2-3.5.2-5 0-1.6-.2-.5-.4 2.2-.4 2.8 0 4 .2 2.8.4zm15.5 0c-1 .2-2.8.2-4 0-1.3-.2-.5-.4 1.7-.4 2.2-.1 3.2.1 2.3.4zM308.5 56c-.3.5-1 1-1.6 1-.5 0-.9-.5-.9-1 0-.6.7-1 1.6-1 .8 0 1.2.4.9 1zm-90.4 10c.5 0 .9 3.3.9 7.4 0 6.9-.2 7.4-2.2 7.8-5.6 1-6.1.2-5.4-7.5.6-7 1.8-9.2 4.4-8.2.8.3 1.8.5 2.3.5zm-32.4 2.2c-.3.8-.6.5-.6-.6-.1-1.1.2-1.7.5-1.3.3.3.4 1.2.1 1.9zm0 6c-.3.8-.6.5-.6-.6-.1-1.1.2-1.7.5-1.3.3.3.4 1.2.1 1.9zm56 9c-.3.7-.5.2-.5-1.2s.2-1.9.5-1.3c.2.7.2 1.9 0 2.5zm26.5 5.5c-.8 1.3-.9.8-.7-2.2.5-5.2.7-5.6 1.2-2.3.2 1.5 0 3.5-.5 4.5zm144.2.2c3.4 3.7 4.7 14.4 5.3 42.6.6 29.5-1 49-4.5 54.9-4.1 7.1-4.2 6.4-4.2-47.8 0-28.4.4-51.6.8-51.6.5 0 1.6.8 2.6 1.9zm-100 2.6c.3.8.1 1.5-.4 1.5-.6 0-1-.7-1-1.5s.2-1.5.4-1.5.6.7 1 1.5zM183.8 121c-.4 25.7-.2 30 1 30s1.3-2.3.9-14.8c-.6-15.3.2-43.2 1.2-43.2.3 0 .5 13 .3 29l-.3 29h49.3c27.1 0 48.9.4 48.3.8-.5.4-1 1.8-1 3.2v2.5l-15 .6c-15.4.5-147.6.9-148.5.3-.3-.1-.4-2-.2-4.1l.4-3.8 30.9.3 30.9.3v-29.4c0-26.5.2-30.7 1.8-30.7.2 0 .2 13.5 0 30zm7.6-27.5c.3 1 1.9 1.5 4.4 1.5h3.8l-.4 21.7c-.2 12-.5 21.9-.6 22 0 0-2.2.4-4.8.8l-4.8.7v-24.1c0-21.7.6-27.2 2.4-22.6zm23.4 12.1c.9-.3 2.4-.1 3.2.4.8.5 1 1 .4 1-2 0-2.5 3.1-.8 4.7.8.9 1.2 2.3.9 3.1-.3.8 0 1.9.7 2.4 1 .6.7 1.3-1.2 2.8-2 1.5-2.2 2.2-1.3 3.1.8.8.9 1.7.4 2.3-.5.6-1.1 2.7-1.4 4.6-.3 3-.4 2.8-.5-1.3-.2-6.1-2.2-5.3-2.2.9 0 3.9.3 4.4 2.3 4.4 1.7 0 1.9.2.8.9-3 1.9-3.8 0-4.6-11.2-.4-6.2-.6-11.7-.5-12.2 0-.6.4-4.2.8-8 .6-6.6.7-6.7 1-2.2.3 4 .6 4.7 2 4.3zm2.9-3.9c-.3 1-.5.4-.5-1.2 0-1.7.2-2.4.5-1.8.2.7.2 2.1 0 3zm23.2 4c.2 6 1.1 6.9 1.2 1.2.1-4.5.3-4.4 1.3.3.5 2.1 1.3 2.7 4.6 3.3l4 .7V143l-3.9.6c-2.8.5-4.1 1.2-4.6 2.8-.7 2-.7 2-1.5-.4l-.8-2.5-.1 2.7c-.1 3.5-2.1 3.7-2.1.3 0-1.8-.5-2.5-2-2.5-1.9 0-2-.7-2-16.5s.1-16.5 2-16.5c1.7 0 2-.7 2-5 0-6.3 1.6-6.6 1.9-.3zm3.8-.5c-.3.7-.5.2-.5-1.2s.2-1.9.5-1.3c.2.7.2 1.9 0 2.5zm23.2 4.2c.2-2.1 3.9-2.3 4.4-.3.3 1.3 1.4 1.9 3.1 1.9h2.6v31.9l-2.7.3c-2 .2-2.9.9-3.1 2.5-.4 2.8-3.2 3.1-3.2.3 0-2.8-2-2.5-2.1.2-.1 2.2-.1 2.2-.8-.2-.4-1.3-1.6-2.7-2.7-3-1.9-.5-2-1.5-2.3-16.3-.2-15.5-.2-15.7 1.9-15.7 1.4 0 2.4-.8 2.8-2.2.5-2.1.6-2.1 1.3-.2.4 1 .8 1.4.8.8zm-110.2 5.8c-.3.7-.5.2-.5-1.2s.2-1.9.5-1.3c.2.7.2 1.9 0 2.5zm263.5 32.6l-.9 13.7V139c0-19.2.1-21.2.9-13.7.5 5.3.5 14.4 0 22.5zm-279.5-7.6c-.3.7-.5.2-.5-1.2s.2-1.9.5-1.3c.2.7.2 1.9 0 2.5zm30.3-.2c0 .3-.9 1.1-2 1.8-1.8 1.1-2 1-2-1.8s.2-2.9 2-1.8c1.1.7 2 1.5 2 1.8zm43-2.6c0 .9-3 1.4-3.5.6-.4-.6.3-1 1.4-1 1.2 0 2.1.2 2.1.4zm-71.3 2.8c-.3.8-.6.5-.6-.6-.1-1.1.2-1.7.5-1.3.3.3.4 1.2.1 1.9zm70.6.6c-.6.4-1.3 2.8-1.6 5.2l-.4 4.5-.1-5.3c-.2-4.4.1-5.2 1.6-5.2 1.1 0 1.3.3.5.8zm205.4 27.9c-.3 1-.5.4-.5-1.2 0-1.7.2-2.4.5-1.8.2.7.2 2.1 0 3zm-264.4-.2c-1.3 1.7-2.8 2.4-5.2 2.5-2.9 0-3.2-.2-2.1-1.5.7-.9 1.8-1.4 2.5-1.2.6.3 2.2-.1 3.6-.9 3.2-1.8 3.3-1.8 1.2 1.1zm242.4 6.7c-.3.8-.6.5-.6-.6-.1-1.1.2-1.7.5-1.3.3.3.4 1.2.1 1.9zM174 176.4c0 .3-.4.8-1 1.1-.5.3-1 .1-1-.4 0-.6.5-1.1 1-1.1.6 0 1 .2 1 .4zm24 6.1c-.7.8-1.7 1.5-2.2 1.5-.6 0-.5-.7.2-1.5s1.7-1.5 2.2-1.5c.6 0 .5.7-.2 1.5zm-56.5.5c-.3.5-1.3 1-2.1 1s-1.4-.5-1.4-1c0-.6.9-1 2.1-1 1.1 0 1.7.4 1.4 1zM124 193.1c0 3.6-.2 4-2.2 3.7-4-.5-3.7-7.8.2-7.8 1.7 0 2 .6 2 4.1zm92-1.7c0 .3-.4.8-1 1.1-.5.3-1 .1-1-.4 0-.6.5-1.1 1-1.1.6 0 1 .2 1 .4zm-57.5 1.5c.3.5.1 1.2-.5 1.6-.5.3-1-.1-1-.9 0-1.8.6-2.1 1.5-.7zm81.6 4.2c-1.3 1.1-2.6 1.7-2.9 1.4-.7-.6 2.9-3.4 4.3-3.4.6 0-.1.9-1.4 2zm27.4-.1c-1 1.1-2.2 1.7-2.8 1.3-.6-.4-.3-1.2.8-2 2.8-2 4.1-1.6 2 .7zm-66.1 10.8c.3.5-.1.9-.9.9s-1.2-.4-.9-.9c.3-.4.7-.8.9-.8.2 0 .6.4.9.8zm206.3 6.9c-1.8 1.8-4.6 1-5.5-1.5-.6-2 4.1-3.2 5.8-1.6 1.2 1.2 1.2 1.6-.3 3.1zM280 213.5c0 1 .9 1.3 3.5 1 2-.3 3.5 0 3.5.5 0 .6-.4 1-.9 1s-1.7.8-2.7 1.7c-2 2-14.1 2.5-109.1 3.8l-52.3.8V214h24.3c30.2 0 108.1-1.2 108.6-1.6.2-.2 5.9-.3 12.7-.3 10 0 12.4.3 12.4 1.4zm7.7 5.1c-.3.3-1.2.4-1.9.1-.8-.3-.5-.6.6-.6 1.1-.1 1.7.2 1.3.5zm112 7.6c-.3.8-.6.5-.6-.6-.1-1.1.2-1.7.5-1.3.3.3.4 1.2.1 1.9zM148 246.1c0 2.6-.3 3-2.2 2.7-1.7-.2-2.4-1.1-2.6-3.1-.3-2.3 0-2.7 2.2-2.7s2.6.4 2.6 3.1zm-1.9 13.2c.2 2.6-.2 5.2-.9 5.9-.9.9-1.2.2-1.1-3.2.1-4.6.8-8.4 1.4-7.8.2.2.5 2.5.6 5.1zm30.9-.8c0 1.9-.4 3.5-1 3.5-1.1 0-1.4-5.3-.3-6.3 1.1-1.2 1.3-.8 1.3 2.8zm-32 16c0 .8-.4 1.5-1 1.5-.5 0-1-.7-1-1.5s.5-1.5 1-1.5c.6 0 1 .7 1 1.5zm90.5 14.5c-.3.5-1.4 1-2.3 1-1.5 0-1.5-.2-.2-1 2-1.3 3.3-1.3 2.5 0zm-60.9 7.8c-.2 1.5-.4 4.5-.5 6.6-.1 2.5-.5 3.6-1 3-1.2-1.1-.2-13.6 1-12.9.4.3.6 1.8.5 3.3zm88.4-2.3c-1.6 1.9-.6 3.2 1.3 1.7.7-.6 2.5-1.3 4-1.6l2.8-.5-2.8 3.4c-1.5 1.8-3.6 3.4-4.5 3.4-1.4.1-6.3-1.6-7.7-2.6-1-.7 4.4-5.3 6.2-5.3 1.6 0 1.7.2.7 1.5zm-120.1 2.7c-.1 5.3-1.4 11.4-2.2 10.2-.9-1.6.3-13.4 1.4-13.4.5 0 .9 1.5.8 3.2zm2.8 8c-.3.8-.6.5-.6-.6-.1-1.1.2-1.7.5-1.3.3.3.4 1.2.1 1.9zm105.3 2.7c0 .5-.7 1.1-1.5 1.3-1 .2-1.2.7-.5 1.8.7 1.2 1.2 1.2 2.2.2.6-.6 2.3-1.2 3.6-1.2h2.5l-2.8 2.6c-2.8 2.6-2.8 2.6-7.2.9-3.7-1.4-4.2-1.9-3.1-3.2 2-2.4 6.8-4.1 6.8-2.4zm-29.6 3.6c-2.5 1.9-1.5 1.9 2.9 0 5.6-2.3 6.2-1.8 2.1 2-2 1.9-3.9 3.5-4.1 3.5-.2 0-1.9-.7-3.8-1.4-4-1.7-3.9-3.8.4-6.1 3.3-1.7 5.4-.2 2.5 2zM133 328.6c0 8.8-.3 11.5-1.2 11.2-.9-.3-1.4-3.8-1.6-11.6-.2-9.5 0-11.2 1.3-11.2s1.5 1.8 1.5 11.6zm32 1.5c0 7.6-.3 10-1.2 9.6-.9-.2-1.3-3.2-1.5-9.3-.1-9.1.1-10.4 1.8-10.4.5 0 .9 4.4.9 10.1zm43.3-4.4c-.5 1.4-.1 1.5 3.5.9 2.3-.3 4.2-.5 4.2-.3s-1.3 1.3-3 2.5c-2.8 2.1-3.2 2.2-6 .7-3.5-1.8-3.6-2.3-1.2-4.1 2.3-1.8 3.3-1.7 2.5.3zm19.4 16.5c-.3.8-.6.5-.6-.6-.1-1.1.2-1.7.5-1.3.3.3.4 1.2.1 1.9zM250 346c-4.4.5-2.9.7 7 .9l12.5.3-5 1.4c-6 1.6-7.8 1.7-7 .4.4-.6-.6-1-2.4-1-1.6 0-3.2.4-3.6.9-.3.6-3.6.9-7.3.9-7.4-.2-10.4.8-8.1 2.4.9.6-.5.7-4.1.3-7.5-.8-33.1-.5-34.8.4-.8.5 4.4.7 11.4.5l12.9-.2-10.5.8c-5.8.4-18.6 1.1-28.5 1.4-9.9.4-24.1 1.1-31.5 1.6-7.4.5-17.2.9-21.8 1h-8.3l.3-3.8.3-3.7 11-.5c6.1-.3 11.2-.1 11.4.4.2.4.6.4 1-.2.3-.5 9.7-1.3 22.1-1.7 11.8-.3 24.4-.8 28-1.1 3.6-.2 16.2-.6 28-.9 11.8-.3 21.6-.8 21.9-1 .2-.3 2.7-.4 5.5-.3l5.1.1-5.5.7zm12.8-.3c-1 .2-2.8.2-4 0-1.3-.2-.5-.4 1.7-.4 2.2-.1 3.2.1 2.3.4zm-22.1 6.9c-.3.3-1.2.4-1.9.1-.8-.3-.5-.6.6-.6 1.1-.1 1.7.2 1.3.5zm-9.7 29.3c0 .5-.7 1.1-1.4 1.4-1 .4-1.3.1-.9-.9.6-1.5 2.3-1.9 2.3-.5zm-20.4 2.6c-.8 2-1.4 4.2-.9 3.3.3-.5 1.5-.5 2.9-.2 1.5.4 2.9 0 3.9-1 .9-.9 2.2-1.6 2.8-1.6.7 0 .6.4-.3 1-1.3.8-1.2 1 .4 1s1.6.2-.5 2.4c-1.3 1.4-2.9 4.1-3.5 6.2l-1 3.7-3.7-3.7c-3.8-3.8-4.6-7-2.7-10.7 1.2-2.2 3.5-2.6 2.6-.4zm47.4-1.1c0 1.1-1.9 1.5-2.5.6-.3-.5.1-1 .9-1 .9 0 1.6.2 1.6.4zm-20.5 1.6c-.3.5.2 1 1.1 1 1.6 0 1.6.1-.1 2-2.4 2.7-3.5 2.5-6.3-1.1l-2.4-2.9h4.2c2.5 0 3.9.4 3.5 1zm-41.1 13.3c1.1 1.8 0 4.7-2.1 5.4-1.2.4-4.3-2.3-4.3-3.7 0-1.4 3.1-4.1 4.3-3.7.6.2 1.5 1.1 2.1 2zm79.2-.2c.3.6-.1 1.8-.9 2.7-1.3 1.3-1.9 1.3-3.1.2-.9-.7-1.6-1.9-1.6-2.6 0-1.7 4.6-1.9 5.6-.3zm-19.2 4.1c1.4 2.3-.5 4.2-3.3 3.3-2-.6-2.8-3.4-1.4-4.9 1.1-1.1 3.5-.3 4.7 1.6zm-19 .4c.7 1.9-1 4.4-3 4.4s-3.6-3.4-2.2-4.8c1.7-1.7 4.5-1.5 5.2.4zM145 406c0 2.3-3.2 4.3-5.4 3.4-2.1-.8-2-5.1.1-6.3 2.3-1.2 5.3.4 5.3 2.9zm26.6-2c1.6 0 1.9 2.6.4 3.5-1.3.8-5-.4-5-1.6 0-.6.5-.7 1.2-.3.7.5.9.2.5-.8-.3-.9-.3-1.9.1-2.3.4-.3.8-.1 1 .4.2.6 1 1.1 1.8 1.1zm72.4 14.1c.9 1.5.8 2.4-.1 3.5-1.5 1.8-2.4 1.8-4.3-.1-1.8-1.8-1.2-4.2 1.2-4.8 1-.3 1.8-.5 1.9-.6.1 0 .7.8 1.3 2zm23.8.6c.3 1.9-.1 2.3-2.2 2.3s-2.6-.5-2.6-2.6.4-2.5 2.3-2.2c1.4.2 2.3 1.1 2.5 2.5zm-43.4 1.6c.8 1.2.7 2.1-.5 3.2-2.1 2.1-4.9.9-4.9-2 0-3.6 3.4-4.4 5.4-1.2zm-18 .3c.8 2.2-1.2 5.6-3.1 5.2-2.2-.4-3.8-3.2-3-5.2.8-2.1 5.3-2.1 6.1 0zm-19.4 2.9c0 2-.5 2.5-2.5 2.5-2.6 0-2.9-.7-1.9-3.4s4.4-2 4.4.9zm-30.4 1.7c-.1 1.2-1.1 2.4-2.3 2.9-1.8.6-2.1.5-1.6-.8.4-1.1.2-1.4-.5-.9-.7.4-1.2.1-1.2-.8 0-1.7 2.8-3.6 4.6-2.9.6.2 1.1 1.3 1 2.5zm-26.6-.8c0 .2.3 1.1.6 1.9.8 2.1-2.5 5.1-4.1 3.7-1.8-1.5-.7-6 1.6-6 1.1 0 1.9.2 1.9.4zm173.5 12.4c-.6.6-3.4-2.8-3.5-4.2 0-.5.9.1 2 1.4 1.1 1.3 1.8 2.6 1.5 2.8zM314 435c0 .5-.2 1-.4 1s-1.2.3-2.2.7c-1.6.6-1.7.5-.4-1 1.7-1.9 3-2.2 3-.7zm10.2 10.4c10.1 4.1 25.7 10.5 34.8 14.2 9.1 3.7 20.8 8.4 26 10.4 5.1 2 9.6 4.2 9.8 4.8.2.6-5.4-1.3-12.5-4.3-7-3-24.9-10.3-39.8-16.4-27.5-11.2-38.5-15.9-37.3-16 .3-.1 8.9 3.2 19 7.3z"/><path d="M375.3 32.7c2 .2 5.4.2 7.5 0 2-.2.3-.4-3.8-.4s-5.8.2-3.7.4zm-65.2 67.9c0 1.1.3 1.4.6.6.3-.7.2-1.6-.1-1.9-.3-.4-.6.2-.5 1.3zm8.4.4c.3.5.8 1 1.1 1 .2 0 .4-.5.4-1 0-.6-.5-1-1.1-1-.5 0-.7.4-.4 1zm-14.3 45.5c0 1.6.2 2.2.5 1.2.2-.9.2-2.3 0-3-.3-.6-.5.1-.5 1.8zm-89.9-30c0 3.3.2 4.5.4 2.7.2-1.8.2-4.5 0-6s-.4 0-.4 3.3zm33.7 11c0 1.4.4 2.5.9 2.5.4 0 .6-1.1.3-2.5-.2-1.4-.6-2.5-.8-2.5-.2 0-.4 1.1-.4 2.5zm26.4-.5c0 1.1.4 2 .8 2s.8-.9.8-2-.4-2-.8-2-.8.9-.8 2zm-28.6 221.7c.6.2 1.8.2 2.5 0 .6-.3.1-.5-1.3-.5-1.4 0-1.9.2-1.2.5zm-17 2.5c.6.6 1.8.8 2.8.6 1.4-.3 1.2-.5-.9-1-1.9-.3-2.5-.2-1.9.4zm-64.8 2.5c0 1.1 7.8 1.5 9.5.5.9-.5-.6-.9-4-1-3-.1-5.5.1-5.5.5zm25.8 0c.7.3 1.6.2 1.9-.1.4-.3-.2-.6-1.3-.5-1.1 0-1.4.3-.6.6zM131 355c-2.3.7-2.3.8-.3.9 1.2.1 2.5-.4 2.8-.9.3-.6.5-1 .3-.9-.2.1-1.4.5-2.8.9zm10.3-.3c1.5.2 3.9.2 5.5 0 1.5-.2.2-.4-2.8-.4s-4.3.2-2.7.4zm16.5 0c.7.3 1.6.2 1.9-.1.4-.3-.2-.6-1.3-.5-1.1 0-1.4.3-.6.6z"/></svg>