<svg id="Слой_1" data-name="Слой 1" xmlns="http://www.w3.org/2000/svg" viewBox="0 0 49.3 48.8"><defs><style>.cls-2{fill:#8c0014}</style></defs><circle cx="24.5" cy="24.3" r="23.5" fill="none" stroke="#e2dede"/><path class="cls-2" d="M35.3 21.8l-1.7-.3-.7-1.6 1-1.4a1.5 1.5 0 00-.2-2L32.2 15a1.5 1.5 0 00-1.9-.2l-1.4 1-1.6-.7-.3-1.7a1.5 1.5 0 00-1.5-1.2h-2a1.6 1.6 0 00-1.5 1.2l-.3 1.7-1.6.7-1.4-1a1.5 1.5 0 00-1.9.2l-1.5 1.5a1.4 1.4 0 000 1.9l1 1.4-.8 1.7-1.7.2a1.6 1.6 0 00-1.2 1.5v2a1.6 1.6 0 001.2 1.5l1.7.3.7 1.6-1 1.4a1.5 1.5 0 00.2 1.9l1.5 1.5a1.5 1.5 0 002 0l1.3-1 1.6.8.3 1.7a1.4 1.4 0 001.4 1.2h2.2a1.4 1.4 0 001.4-1.2l.3-1.7 1.6-.7 1.4 1a1.5 1.5 0 002-.2l1.4-1.5A1.5 1.5 0 0034 30l-1-1.4.7-1.6 1.7-.3a1.4 1.4 0 001.2-1.4v-2.2a1.4 1.4 0 00-1.2-1.4zm0 3.6H35l-2 .4c-.3 0-.5.3-.6.5a8.3 8.3 0 01-.9 2 1.1 1.1 0 000 .9l1.3 1.7v.2l-1.5 1.5h-.1l-1.8-1.2a.7.7 0 00-.8 0 7.8 7.8 0 01-2 .8c-.3 0-.5.3-.6.5l-.3 2-.1.3h-2.2v-.2l-.4-2c0-.3-.3-.5-.5-.6l-2-.8-.4-.1h-.4l-1.8 1.3h-.1L16.3 31l1.2-1.8v-.7a7.7 7.7 0 01-.9-2.1.5.5 0 00-.5-.5l-2.1-.4h-.1v-2.3l2.2-.4c.2 0 .4-.2.5-.5a7.5 7.5 0 01.9-2v-.8l-1.3-1.8v-.2l1.5-1.4h.2l1.6 1.2h.7a8 8 0 012.1-.9.5.5 0 00.5-.5l.4-2.1.1-.2h2.2l.2.2.3 2a.6.6 0 00.5.6 8.5 8.5 0 012.2.9h.7l1.7-1.3h.1l1.6 1.5v.2l-1.2 1.6a.6.6 0 000 .8l.8 2c0 .3.3.5.5.6l2.2.3v2.4z"/><path class="cls-2" d="M24.5 19a5.2 5.2 0 000 10.5 5.2 5.2 0 000-10.4zm0 9a3.8 3.8 0 113.8-3.7 3.8 3.8 0 01-3.8 3.8z"/></svg>