<svg data-name="Слой 1" xmlns="http://www.w3.org/2000/svg" viewBox="0 0 305.1 254.2"><path d="M287.1 2.1h-93.6c-8.5 0-15.4 6.5-15.4 14.5V105a15 15 0 0015.4 14.5h44.8q-1 34.7-17 55.6-12.8 16.4-38.6 27.2a14.2 14.2 0 00-7.7 19.5l11 22a15.8 15.8 0 0020 7q30.6-12.5 51.7-31.6 25.7-23.2 35.2-52.7t9.6-80.5V16.6c0-8-6.9-14.5-15.3-14.5zm-252 248.7q30.2-12.4 51.3-31.5 26-23.4 35.4-52.6t9.5-80.7V16.6c0-8-6.9-14.5-15.4-14.5H22.5C14 2.1 7.1 8.6 7.1 16.6V105a15 15 0 0015.4 14.5h44.8q-1 34.7-17.1 55.5-12.7 16.5-38.5 27.3A14.2 14.2 0 004 221.8l11 22c3.6 7 12.5 10.3 20.1 7z" fill="#fff"/></svg>