<svg id="Слой_1" data-name="Слой 1" xmlns="http://www.w3.org/2000/svg" viewBox="0 0 49.2 49.2"><defs><style>.cls-1{fill:#8c0014}</style></defs><path class="cls-1" d="M35.6 18.6v-.8a2.7 2.7 0 00-2.6-2.7 10.5 10.5 0 01-7.3-3 1.6 1.6 0 00-2.2 0 10.5 10.5 0 01-7.3 3 2.8 2.8 0 00-2.6 2.7v.8a29 29 0 001 10.4 13 13 0 003.2 5 16.5 16.5 0 006.8 3.6 2.5 2.5 0 00.6 0 17.8 17.8 0 006.2-3.7 14.1 14.1 0 003.1-5c1.3-3.4 1.2-7.2 1.1-10.2zm-2.5 9.8a12.6 12.6 0 01-8.6 7.7c-4.3-1.5-7-4-8.4-7.7a26.5 26.5 0 01-1-9.7v-.9a1.1 1.1 0 011.2-1 12 12 0 008.2-3.6h.2a11.9 11.9 0 008.2 3.5 1.1 1.1 0 011.2 1.1v1c0 3 .1 6.5-1 9.6z"/><path class="cls-1" d="M24.6 18.1a6.5 6.5 0 106.5 6.5 6.5 6.5 0 00-6.5-6.5zm0 11.5a5 5 0 115-5 5 5 0 01-5 5z"/><path class="cls-1" d="M26.5 22.6l-3 3-.9-.8a.8.8 0 00-1 1l1.3 1.4a.8.8 0 001 0l3.6-3.5a.8.8 0 00-.4-1 .8.8 0 00-.6 0z"/><circle cx="24.6" cy="24.6" r="23.5" fill="none" stroke="#e2dede"/></svg>